<?xml version="1.0" encoding="UTF-8"?>
<svg width="190px" height="45px" viewBox="0 0 190 45" version="1.1" xmlns="http://www.w3.org/2000/svg" xmlns:xlink="http://www.w3.org/1999/xlink">
    <!-- Generator: Sketch 47.1 (45422) - http://www.bohemiancoding.com/sketch -->
    <title>Page 1</title>
    <desc>Created with Sketch.</desc>
    <defs>
        <polygon id="path-1" points="11.377265 0.00212727273 11.377265 12.8148545 0.805876068 12.8148545 0.805876068 0.00212727273"></polygon>
    </defs>
    <g id="Page-1" stroke="none" stroke-width="1" fill="none" fill-rule="evenodd">
        <g id="Desktop" transform="translate(-64.000000, -15.000000)">
            <g id="Page-1" transform="translate(64.000000, 15.000000)">
                <path d="M11.1754103,44.1841909 C12.0766923,44.1841909 13.1671624,43.5623727 13.6056239,42.7981909 L18.2370769,35.2529182 C18.2541282,35.1940091 18.2890427,35.1432818 18.330453,35.0851909 L18.3921624,34.9951909 L18.8005812,34.3218273 L15.6509658,29.2769182 L6.41566667,44.1841909 L11.1754103,44.1841909 Z" id="Fill-1" fill="#FFFFFF"></path>
                <path d="M25.2087778,21.1632545 L13.566,2.21007273 C13.1234786,1.48107273 11.9639915,0.818345455 11.1317265,0.818345455 L6.71950427,0.818345455 L23.1220256,27.2791636 L25.2079658,23.8812545 L25.2087778,23.8820727 C25.6472393,23.1579818 25.6472393,21.8881636 25.2087778,21.1632545" id="Fill-3" fill="#FFFFFF"></path>
                <path d="M12.0118974,23.4411545 C11.9445043,23.6727 11.8527521,23.8968818 11.7423248,24.0907909 L11.7390769,24.0965182 L0.227025641,43.0513364 C0.0321538462,43.3908818 -0.0100683761,43.6977 0.111726496,43.9096091 C0.228649573,44.1149727 0.501470085,44.2278818 0.879846154,44.2278818 L5.15484615,44.2278818 L15.0194188,28.3232455 L12.0118974,23.4411545 Z" id="Fill-5" fill="#FFFFFF"></path>
                <g id="Group-9" transform="translate(0.000000, 0.046309)" fill="#FFFFFF">
                    <path d="M0.836324786,0.771872727 C0.457948718,0.771872727 0.185128205,0.8856 0.0682051282,1.09096364 C-0.0535897436,1.30205455 -0.0113675214,1.60887273 0.186752137,1.95332727 L11.7475214,21.0055091 L19.3856838,33.2749636 L22.491453,28.2325091 L5.45884615,0.771872727 L0.836324786,0.771872727 Z" id="Fill-7"></path>
                </g>
                <path d="M55.5171068,21.5747182 C55.5171068,24.0292636 54.7936453,25.9855364 53.3491581,27.4410818 C51.7252265,29.1756273 49.5889444,30.0437182 46.9419359,30.0437182 C44.4094145,30.0437182 42.2658248,29.1600818 40.5119786,27.3919909 C38.7573205,25.6247182 37.8803974,23.4483545 37.8803974,20.8629 C37.8803974,18.2782636 38.7573205,16.1019 40.5119786,14.3338091 C42.2658248,12.5665364 44.4094145,11.6829 46.9419359,11.6829 C48.2256538,11.6829 49.4354829,11.9119909 50.572235,12.3701727 C51.7081752,12.8291727 52.6419359,13.4755364 53.3727051,14.3092636 L51.7650128,15.9300818 C51.2291154,15.2755364 50.5356966,14.7633545 49.6823205,14.3959909 C48.8297564,14.0269909 47.9162949,13.8429 46.9419359,13.8429 C45.0427479,13.8429 43.4342436,14.5056273 42.1196709,15.8310818 C40.8189017,17.1729 40.170953,18.8501727 40.170953,20.8629 C40.170953,22.8756273 40.8189017,24.5537182 42.1196709,25.8947182 C43.4342436,27.2201727 45.0427479,27.8829 46.9419359,27.8829 C48.6803547,27.8829 50.1248419,27.3919909 51.2778333,26.4101727 C52.4308248,25.4283545 53.0974487,24.0791727 53.2760812,22.3601727 L46.9419359,22.3601727 L46.9419359,20.2492636 L55.395312,20.2492636 C55.4756966,20.7074455 55.5171068,21.1492636 55.5171068,21.5747182" id="Fill-10" fill="#FFFFFF"></path>
                <path d="M60.485688,14.2358727 L60.485688,27.4904182 L63.5800897,27.4904182 C65.6100043,27.4904182 67.2095769,26.9054182 68.3788077,25.7354182 C69.5472265,24.5654182 70.1326538,22.9413273 70.1326538,20.8631455 C70.1326538,18.8013273 69.5472265,17.1813273 68.3788077,16.0031455 C67.2095769,14.8249636 65.6100043,14.2358727 63.5800897,14.2358727 L60.485688,14.2358727 Z M58.2446624,29.6504182 L58.2446624,12.0750545 L63.5800897,12.0750545 C66.2425256,12.0750545 68.3820556,12.8858727 69.9978675,14.5058727 C71.6136795,16.1258727 72.4223974,18.2449636 72.4223974,20.8631455 C72.4223974,23.4976909 71.6136795,25.6208727 69.9978675,27.2326909 C68.3820556,28.8445091 66.2425256,29.6504182 63.5800897,29.6504182 L58.2446624,29.6504182 Z" id="Fill-12" fill="#FFFFFF"></path>
                <path d="M91.8605342,21.5747182 C91.8605342,24.0292636 91.1370726,25.9855364 89.6925855,27.4410818 C88.0686538,29.1756273 85.9323718,30.0437182 83.2853632,30.0437182 C80.7528419,30.0437182 78.6092521,29.1600818 76.855406,27.3919909 C75.1007479,25.6247182 74.2238248,23.4483545 74.2238248,20.8629 C74.2238248,18.2782636 75.1007479,16.1019 76.855406,14.3338091 C78.6092521,12.5665364 80.7528419,11.6829 83.2853632,11.6829 C84.5690812,11.6829 85.7789103,11.9119909 86.9156624,12.3701727 C88.0516026,12.8291727 88.9853632,13.4755364 89.7161325,14.3092636 L88.1084402,15.9300818 C87.5725427,15.2755364 86.8791239,14.7633545 86.0257479,14.3959909 C85.1731838,14.0269909 84.2597222,13.8429 83.2853632,13.8429 C81.3861752,13.8429 79.7776709,14.5056273 78.4630983,15.8310818 C77.1623291,17.1729 76.5143803,18.8501727 76.5143803,20.8629 C76.5143803,22.8756273 77.1623291,24.5537182 78.4630983,25.8947182 C79.7776709,27.2201727 81.3861752,27.8829 83.2853632,27.8829 C85.0237821,27.8829 86.4682692,27.3919909 87.6212607,26.4101727 C88.7742521,25.4283545 89.4408761,24.0791727 89.6195085,22.3601727 L83.2853632,22.3601727 L83.2853632,20.2492636 L91.7387393,20.2492636 C91.8191239,20.7074455 91.8605342,21.1492636 91.8605342,21.5747182" id="Fill-14" fill="#FFFFFF"></path>
                <path d="M107.668453,30.0433909 C105.086402,30.0433909 102.926573,29.1679364 101.189778,27.4162091 C99.4675983,25.6653 98.6085385,23.4807545 98.6085385,20.8625727 C98.6085385,18.2452091 99.4675983,16.0688455 101.189778,14.3343 C102.911145,12.5670273 105.070974,11.6833909 107.668453,11.6833909 C110.299222,11.6833909 112.435504,12.6398455 114.075675,14.5543909 L112.467171,16.1253 C111.217556,14.6043 109.617171,13.8425727 107.668453,13.8425727 C105.736786,13.8425727 104.120974,14.4979364 102.821829,15.8070273 C101.538923,17.0997545 100.896658,18.7852091 100.896658,20.8625727 C100.896658,22.9407545 101.538923,24.6270273 102.821829,25.9197545 C104.120974,27.2288455 105.736786,27.8825727 107.668453,27.8825727 C109.698368,27.8825727 111.460333,27.0243 112.955974,25.3061182 L114.587214,26.9007545 C113.758197,27.8997545 112.743239,28.6721182 111.542342,29.2203 C110.340632,29.7684818 109.049607,30.0433909 107.668453,30.0433909" id="Fill-16" fill="#FFFFFF"></path>
                <path d="M124.427996,12.0753 L122.675774,15.2179364 L120.726244,15.2179364 L121.992098,12.0753 L124.427996,12.0753 Z M117.900603,23.6370273 C117.900603,24.9297545 118.273295,25.9770273 119.021927,26.7788455 C119.767312,27.5798455 120.692953,27.9807545 121.79885,27.9807545 C122.902312,27.9807545 123.827141,27.5798455 124.575774,26.7788455 C125.321158,25.9770273 125.695474,24.9297545 125.695474,23.6370273 C125.695474,22.3598455 125.321158,21.3215727 124.575774,20.5189364 C123.810902,19.7007545 122.885261,19.2916636 121.79885,19.2916636 C120.709192,19.2916636 119.784363,19.7007545 119.021927,20.5189364 C118.273295,21.3215727 117.900603,22.3598455 117.900603,23.6370273 L117.900603,23.6370273 Z M115.659577,23.6370273 C115.659577,21.7879364 116.235261,20.2579364 117.388252,19.0470273 C118.558295,17.8361182 120.027141,17.2306636 121.79885,17.2306636 C123.568124,17.2306636 125.02885,17.8361182 126.181842,19.0470273 C127.352697,20.2579364 127.935688,21.7879364 127.935688,23.6370273 C127.935688,25.5016636 127.352697,27.0324818 126.181842,28.2262091 C125.02885,29.4379364 123.568124,30.0433909 121.79885,30.0433909 C120.027141,30.0433909 118.558295,29.4379364 117.388252,28.2262091 C116.235261,27.0161182 115.659577,25.4861182 115.659577,23.6370273 L115.659577,23.6370273 Z" id="Fill-18" fill="#FFFFFF"></path>
                <path d="M131.979846,29.6502545 L129.738821,29.6502545 L129.738821,17.6229818 L131.883222,17.6229818 L131.883222,19.5866182 L131.979846,19.5866182 C132.206385,18.9484364 132.674077,18.4043455 133.380487,17.9543455 C134.087709,17.5043455 134.780316,17.2793455 135.463991,17.2793455 C136.112752,17.2793455 136.664889,17.3775273 137.11959,17.5738909 L136.437538,19.7584364 C136.16147,19.6447091 135.722197,19.5866182 135.121342,19.5866182 C134.277709,19.5866182 133.542068,19.9302545 132.916855,20.6175273 C132.292453,21.3048 131.979846,22.1066182 131.979846,23.0229818 L131.979846,29.6502545 Z" id="Fill-20" fill="#FFFFFF"></path>
                <path d="M143.209415,27.9811636 C144.312876,27.9811636 145.214158,27.5802545 145.913261,26.7784364 C146.643218,25.9774364 147.009415,24.9301636 147.009415,23.6366182 C147.009415,22.3766182 146.643218,21.3375273 145.913261,20.5193455 C145.197919,19.7011636 144.297449,19.2920727 143.209415,19.2920727 C142.13762,19.2920727 141.234714,19.7011636 140.505568,20.5193455 C139.774799,21.3375273 139.407791,22.3766182 139.407791,23.6366182 C139.407791,24.9129818 139.774799,25.9528909 140.505568,26.7538909 C141.234714,27.5720727 142.13762,27.9811636 143.209415,27.9811636 M142.843218,30.0438 C141.284244,30.0438 139.9445,29.4211636 138.824799,28.1775273 C137.718902,26.9175273 137.167577,25.4038909 137.167577,23.6366182 C137.167577,21.8693455 137.718902,20.3565273 138.824799,19.0957091 C139.9445,17.8520727 141.284244,17.2302545 142.843218,17.2302545 C143.720141,17.2302545 144.519115,17.4184364 145.242577,17.7948 C145.966038,18.1719818 146.522235,18.6702545 146.911167,19.2920727 L147.009415,19.2920727 L146.911167,17.6229818 L146.911167,12.0757091 L149.15138,12.0757091 L149.15138,29.6502545 L147.009415,29.6502545 L147.009415,27.9811636 L146.911167,27.9811636 C146.522235,28.6038 145.966038,29.1020727 145.242577,29.4784364 C144.519115,29.8548 143.720141,30.0438 142.843218,30.0438" id="Fill-22" fill="#FFFFFF"></path>
                <path d="M153.317739,23.6369455 C153.317739,24.9296727 153.690432,25.9769455 154.439064,26.7787636 C155.184449,27.5797636 156.11009,27.9814909 157.215987,27.9814909 C158.319449,27.9814909 159.244278,27.5797636 159.99291,26.7787636 C160.738295,25.9769455 161.112611,24.9296727 161.112611,23.6369455 C161.112611,22.3597636 160.738295,21.3214909 159.99291,20.5188545 C159.228038,19.7006727 158.302397,19.2915818 157.215987,19.2915818 C156.126329,19.2915818 155.2015,19.7006727 154.439064,20.5188545 C153.690432,21.3214909 153.317739,22.3597636 153.317739,23.6369455 M151.076714,23.6369455 C151.076714,21.7878545 151.652397,20.2578545 152.805389,19.0469455 C153.976244,17.8360364 155.444278,17.2305818 157.215987,17.2305818 C158.985261,17.2305818 160.445987,17.8360364 161.598979,19.0469455 C162.769833,20.2578545 163.352825,21.7878545 163.352825,23.6369455 C163.352825,25.5015818 162.769833,27.0324 161.598979,28.2261273 C160.445987,29.4378545 158.985261,30.0433091 157.215987,30.0433091 C155.444278,30.0433091 153.976244,29.4378545 152.805389,28.2261273 C151.652397,27.0160364 151.076714,25.4860364 151.076714,23.6369455" id="Fill-24" fill="#FFFFFF"></path>
                <path d="M171.222235,27.9811636 C172.29403,27.9811636 173.195312,27.5720727 173.926081,26.7538909 C174.65685,25.9528909 175.022235,24.9129818 175.022235,23.6366182 C175.022235,22.3766182 174.65685,21.3375273 173.926081,20.5193455 C173.195312,19.7011636 172.29403,19.2920727 171.222235,19.2920727 C170.134201,19.2920727 169.223987,19.7011636 168.493218,20.5193455 C167.7795,21.3375273 167.422235,22.3766182 167.422235,23.6366182 C167.422235,24.9129818 167.7795,25.9602545 168.493218,26.7784364 C169.223987,27.5802545 170.134201,27.9811636 171.222235,27.9811636 M171.586808,30.0438 C170.709885,30.0438 169.91091,29.8548 169.187449,29.4784364 C168.464799,29.1020727 167.909415,28.6038 167.518859,27.9811636 L167.422235,27.9811636 L167.422235,29.6502545 L165.278645,29.6502545 L165.278645,12.0757091 L167.518859,12.0757091 L167.518859,17.6229818 L167.422235,19.2920727 L167.518859,19.2920727 C167.909415,18.6702545 168.464799,18.1719818 169.187449,17.7948 C169.91091,17.4184364 170.709885,17.2302545 171.586808,17.2302545 C173.162021,17.2302545 174.493645,17.8520727 175.581679,19.0957091 C176.703004,20.3565273 177.262449,21.8693455 177.262449,23.6366182 C177.262449,25.4202545 176.703004,26.9347091 175.581679,28.1775273 C174.493645,29.4211636 173.162021,30.0438 171.586808,30.0438" id="Fill-26" fill="#FFFFFF"></path>
                <g id="Group-30" transform="translate(177.820513, 17.228127)">
                    <mask id="mask-2" fill="white">
                        <use xlink:href="#path-1"></use>
                    </mask>
                    <g id="Clip-29"></g>
                    <path d="M3.11997863,8.74030909 C3.11997863,9.3294 3.36762821,9.82030909 3.86373932,10.2130364 C4.3582265,10.6057636 4.93878205,10.8021273 5.60540598,10.8021273 C6.54728632,10.8021273 7.38604701,10.4503091 8.12655983,9.74667273 C8.86382479,9.04303636 9.23326923,8.21667273 9.23326923,7.26758182 C8.5357906,6.71203636 7.56224359,6.43303636 6.31100427,6.43303636 C5.40241453,6.43303636 4.64241453,6.65394545 4.03344017,7.09576364 C3.42446581,7.53758182 3.11997863,8.08576364 3.11997863,8.74030909 M6.01869658,0.00212727273 C7.67429487,0.00212727273 8.98318376,0.448036364 9.94049145,1.33985455 C10.8986111,2.23167273 11.3776709,3.45485455 11.3776709,5.0094 L11.3776709,12.4221273 L9.23326923,12.4221273 L9.23326923,10.7530364 L9.1366453,10.7530364 C8.21100427,12.1275818 6.97681624,12.8148545 5.4340812,12.8148545 C4.11869658,12.8148545 3.01848291,12.4221273 2.13344017,11.6366727 C1.24839744,10.8512182 0.805876068,9.8694 0.805876068,8.69121818 C0.805876068,7.44758182 1.27275641,6.45758182 2.20651709,5.72121818 C3.14027778,4.98485455 4.38745726,4.61667273 5.94561966,4.61667273 C7.27643162,4.61667273 8.3742094,4.86212727 9.23326923,5.35303636 L9.23326923,4.83758182 C9.23326923,4.05212727 8.92553419,3.38530909 8.30925214,2.83712727 C7.69053419,2.28894545 6.96869658,2.01485455 6.14130342,2.01485455 C4.8900641,2.01485455 3.90027778,2.54667273 3.16950855,3.61030909 L1.19643162,2.35849091 C2.28446581,0.787581818 3.89053419,0.00212727273 6.01869658,0.00212727273" id="Fill-28" fill="#FFFFFF" mask="url(#mask-2)"></path>
                </g>
            </g>
        </g>
    </g>
</svg>